<svg version="1.2" xmlns="http://www.w3.org/2000/svg" viewBox="0 0 4000 4000" width="4000" height="4000">
	<title>18514975-ai</title>
	<style>
		.s0 { fill: #f7af41 } 
		.s1 { fill: #6c184e } 
		.s2 { fill: #ffce00 } 
		.s3 { fill: #ffffff } 
		.s4 { fill: #ee1822 } 
		.s5 { fill: #bd1622 } 
		.s6 { fill: #f6c547 } 
		.s7 { fill: #48c75a } 
		.s8 { fill: #661a47 } 
		.s9 { fill: #651b47 } 
		.s10 { fill: #eb984e } 
		.s11 { fill: #6d184e } 
	</style>
	<g id="_Artboards_">
	</g>
	<g id="Layer 1">
		<g id="&lt;Group&gt;">
			<g id="&lt;Group&gt;">
				<g id="&lt;Group&gt;">
				</g>
			</g>
			<g id="&lt;Group&gt;" style="opacity: .3">
			</g>
			<g id="&lt;Group&gt;">
				<g id="&lt;Group&gt;">
					<g id="&lt;Group&gt;">
						<path id="&lt;Path&gt;" class="s0" d="m762.7 2808c0 0-54.1 171.8 348.4-74.4 402.4-246.3 1406.8-434.5 1882-374.4 475.2 60.1 139.7-1069.4-212.9-1250.7-352.7-181.3-1455.7 601.6-2017.5 1699.5z"/>
					</g>
					<g id="&lt;Group&gt;" style="opacity: .3">
						<path id="&lt;Path&gt;" class="s1" d="m794.6 2769.9c0 0-86 209.9 316.5-36.3 402.4-246.3 1406.8-434.5 1882-374.4 475.2 60.1 139.7-1069.4-212.9-1250.7-352.7-181.3-1423.8 563.6-1985.6 1661.4z"/>
					</g>
					<g id="&lt;Group&gt;">
						<path id="&lt;Compound Path&gt;" fill-rule="evenodd" class="s1" d="m832.1 2871.4c-21.2 0-37.9-5.1-50.3-15.1-37.9-30.7-17.4-90.5-16.5-93q0.4-1.2 0.9-2.3c258.3-504.6 591.4-874 825.5-1095 296.5-280.1 609.4-486.7 858.5-566.8 143.8-46.3 257.6-48.7 338.4-7.2 128.1 65.9 261.7 254.2 357.5 503.7 93.8 244.5 124.6 485.1 80.4 627.9-31.9 102.9-99.9 156.4-197.9 156.4q-18.2 0-37.8-2.4c-488.9-61.9-1485.1 136.2-1870.1 371.7-133.4 81.6-228.8 122.1-288.6 122.1zm-32.3-94.8c-3.4 10.7-8.8 39.6 5.3 51 11.9 9.5 68.3 29.7 296.3-109.8 190.7-116.7 526-227.7 919.9-304.4 381.3-74.3 745.5-101.4 974.1-72.5 99.7 12.5 165.5-30.6 195.8-128.2 41.9-135.2 11.4-366.6-79.6-603.7-91.2-237.7-221.5-423.2-339.9-484.1-70.7-36.3-178-33.1-310.2 9.5-244 78.5-551.8 282.1-844.5 558.5-231.7 218.8-561.5 584.4-817.2 1083.7z"/>
					</g>
					<g id="&lt;Group&gt;">
						<g id="&lt;Group&gt;">
							<path id="&lt;Path&gt;" class="s2" d="m2805.1 1324.8c-55.8-12.8 5.6-33.8-68.5-107.6-74-73.8-155.4-13.2-155.4-13.2 13.2-27 16.2-52.1 2.1-72-63.8-89.3-231-33.4-292.3-105-61.2-71.6-207.3-6-207.3-6 0 0-872.9 521-1122.8 1121.1-249.8 600.1-230.8 784.3-122.2 742.8 108.6-41.5 188.7-135.2 268.2-61.4 79.6 73.8-19.8 212.1 76.4 280.2 53.9 38.2 178.6-30.3 118.6-132.6-59.9-102.2-139.2-291.8-4.8-393.4 134.4-101.7 443-155.8 424.7-13-45.1 353.9 331.4 203.8 214.4 54.2-99.3-127-7.9-349.9 213.5-227.2 185.9 103.1 162.2-37.2 345.6-97.5 136.7-44.9 388.4-46.4 388.4-46.4 176.6-103.7 16.9-154.9 16.9-154.9 0 0 148-113.9 110.9-192.6-37.1-78.8-19.1-202.8-15.8-328.3 3.3-125.6-134.7-234.3-190.6-247.2z"/>
						</g>
						<g id="&lt;Group&gt;" style="opacity: .3">
							<path id="&lt;Path&gt;" class="s1" d="m2805.1 1324.8c-55.8-12.8 5.6-33.8-68.5-107.6-74-73.8-155.4-13.2-155.4-13.2 13.2-27 16.2-52.1 2.1-72-63.8-89.3-231-33.4-292.3-105-61.2-71.6-207.3-6-207.3-6 0 0-20.3 12.2-55.6 34.8 273.1 71.7 836.7 301.8 733 1120.8 0 0-1090.1 78.3-1389.8 264.5-215.5 133.9-432.1 385.7-600.2 418 12.1 30.8 36.1 37.9 67.6 25.8 108.6-41.5 188.7-135.2 268.2-61.4 79.6 73.8-19.8 212.1 76.4 280.2 53.9 38.2 178.6-30.3 118.6-132.6-59.9-102.2-139.2-291.8-4.8-393.4 134.4-101.7 443-155.8 424.7-13-45.1 353.9 331.4 203.8 214.4 54.2-99.3-127-7.9-349.9 213.5-227.2 185.9 103.1 162.2-37.2 345.6-97.5 136.7-44.9 388.4-46.4 388.4-46.4 176.6-103.7 16.9-154.9 16.9-154.9 0 0 148-113.9 110.9-192.6-37.1-78.8-19.1-202.8-15.8-328.3 3.3-125.6-134.7-234.3-190.6-247.2z"/>
						</g>
						<g id="&lt;Group&gt;" style="opacity: .7">
							<g id="&lt;Group&gt;">
								<path id="&lt;Path&gt;" class="s3" d="m2852.8 1352.9c4.9 1.1 10.4 3 16.3 5.5-15.3-11.2-30.1-20-43-26 1.3 9.6 5.6 15.7 26.7 20.5z"/>
							</g>
							<g id="&lt;Group&gt;">
								<path id="&lt;Path&gt;" class="s3" d="m2949.8 2121.5q-0.4-0.5-0.9-0.9-0.5 0.4-0.5 0.4c0 0 0.5 0.2 1.4 0.5z"/>
							</g>
							<g id="&lt;Group&gt;">
								<path id="&lt;Path&gt;" class="s3" d="m2628.9 1232.1c0 0 47.8-35.5 103.4-19-32.3-29.8-65.6-35-92.7-31.5 2.4 15.3-1.9 32.5-10.7 50.5z"/>
							</g>
							<g id="&lt;Group&gt;">
								<path id="&lt;Path&gt;" class="s3" d="m2570.6 1117.3c-55.2-53.2-159.1-37.5-229.5-59.8 47.8 51.4 153.6 33.2 229.5 59.8z"/>
							</g>
							<g id="&lt;Group&gt;">
								<path id="&lt;Path&gt;" class="s3" d="m2083.7 1021c0 0-388.5 231.9-721.3 564.5-6.5 4.8-12.8 10.4-18.6 16.7-3.7 4-7 8.1-10.1 12.3-154.8 159-294.4 339.4-372.8 527.6-234.6 563.6-232.1 760.3-141 747.8-31.4-72.5 9.4-288.9 188.8-719.7 67.4-162 180.3-318.3 309.1-460 2.7 4.8 6 9.3 10.1 13.1 28.6 26.4 82.1 15.2 119.5-25.2 37.4-40.4 44.5-94.7 15.9-121.1-2.8-2.6-5.9-4.7-9.1-6.6 322-309.3 654.6-546.2 654.6-546.2 0 0 112.9-15.7 181.3 1.8-61.7-70-206.4-5-206.4-5z"/>
							</g>
						</g>
						<g id="&lt;Group&gt;">
							<path id="&lt;Compound Path&gt;" fill-rule="evenodd" class="s1" d="m1220.5 3132.8c-17.7 0-34.5-4.5-47.9-14-58.5-41.5-55-105.1-51.8-161.1 2.7-47 5.2-91.3-26.4-120.6-44.5-41.2-87.1-20.4-158.6 20-28.4 16-57.7 32.5-90.4 45.1-39.4 15-62.8 2.5-75.6-10.7-81.5-83.9 49.7-457.7 174.1-756.5 130.5-313.5 431.1-604.1 660.4-792.7 247.6-203.8 467.7-335.8 469.9-337.1q0.9-0.6 1.9-1c6.5-2.9 159.6-70.4 229 10.8 24 28 72 33.1 122.9 38.4 61.7 6.5 131.7 13.8 170.3 67.8 9.9 13.9 14.1 29.8 12.6 47.7 38.7-12.3 91.7-11.8 138.8 35.2 44.3 44.2 45.8 74 46.6 91.8 0.1 2.2 0.3 5.2 0.5 6.8 1.2 0.7 4.4 2.3 12.5 4.1 64.3 14.8 208.4 130.5 204.9 265.7-0.8 27.7-2.2 55.4-3.6 82.2-4.8 92.8-9.4 180.4 17.6 237.7 33.6 71.1-49.2 157.1-92.9 195.7 21.1 11.8 46.3 32 49.7 62.3 4.1 37.5-25.9 74.6-91.9 113.4-2.8 1.6-6 2.5-9.3 2.5-2.5 0-250.4 2-382.7 45.5-66 21.7-103 53.6-135.6 81.8-60.8 52.4-104.1 81.2-224.7 14.3-82.7-45.8-153.8-44.4-195.1 4-43.3 50.7-41 136.7 5.1 195.7 33.8 43.2 35.3 93.7 4.1 135.1-38 50.2-111.7 71.6-167.9 48.8-40-16.3-104.1-67.8-83.5-229.2 3-23.3-4.5-39.3-23.5-50.4-70.2-40.6-268.3 2.2-371.8 80.5-129.3 97.8-36.3 290.9 9.7 369.4 29.5 50.3 23.5 102.1-16.2 138.4-23.2 21.3-53.4 32.6-81.2 32.6zm-177.3-355.1c25.6 0 51.1 8.9 76.3 32.2 44.4 41.2 41.1 98.9 38.2 149.9-3 53.2-5.6 99.1 36.3 128.8 20.1 14.3 58 7.1 82.8-15.6 15.4-14.1 37.1-45 9.2-92.5-51-87-153-301.9-0.1-417.6 106.3-80.4 321.8-135.5 412.6-83 32.2 18.7 46.6 48.8 41.7 87.1-13 101.4 8.6 169 60.7 190.2 40.8 16.6 96.6 0.1 124.5-36.8 12.2-16.2 28-49.5-3.7-90.1-56.6-72.3-58.4-178.8-4.1-242.4 53-62 143.1-66.7 241.1-12.3 104.1 57.7 130.4 35.1 182.6-10 33.5-28.9 75.2-64.9 148.2-88.9 128.8-42.3 351.6-46.8 389-47.3 63.5-38.1 71-63.2 69.7-74.9-2.4-22.6-40.2-39.7-53.2-44-6.6-2.1-11.4-7.7-12.6-14.4-1.1-6.8 1.5-13.6 7-17.8 35.3-27.3 130.4-117 105.4-170.2-31-65.6-26.2-157.7-21.1-255.3 1.4-26.6 2.8-54.1 3.5-81.3 2.9-112.5-124-216.6-176.2-228.7-33.6-7.7-40.5-21.8-41.6-45.2-0.7-14-1.6-33.2-35.8-67.3-61.5-61.3-128.6-13.4-131.4-11.4-6.8 5-16.3 4.8-22.8-0.7-6.5-5.4-8.5-14.6-4.8-22.3 16.9-34.6 6.9-48.6 3.6-53.2-28.9-40.5-84.8-46.3-144.1-52.5-55.8-5.9-113.5-11.9-147.1-51.2-42.5-49.7-146.8-18.4-184.8-1.5-15.7 9.4-227.4 138.2-464.9 333.7-225.8 185.8-521.7 471.7-649.3 778-91.4 219.7-152 395.7-179.9 523.2-31.4 143.8-11.7 183.2-1.8 193.4 2.7 2.8 11 11.3 35.8 1.8 30.2-11.5 58.3-27.4 85.5-42.7 41.3-23.4 83.6-47.2 125.6-47.2z"/>
						</g>
					</g>
					<g id="&lt;Group&gt;">
						<path id="&lt;Path&gt;" class="s1" d="m2215.4 2235.5c105.6-19.1 211.6-36.2 318.2-50 53.3-6.9 106.7-12.9 160.4-17.6 53.6-4.6 107.5-8 161.6-9.1 9-0.1 16.3 7 16.5 15.9 0.2 8.9-6.9 16.3-15.9 16.5q-0.3 0-0.7 0h-0.1c-53.1-1.7-106.5-1-159.9 1-53.4 1.9-106.9 5.2-160.3 9.4-106.8 8.4-213.4 20.1-319.8 33.9z"/>
					</g>
				</g>
				<g id="&lt;Group&gt;" style="opacity: .3">
					<g id="&lt;Group&gt;">
						<path id="&lt;Path&gt;" class="s1" d="m2556.3 1107.9c0 0 0.6-0.4 1.5-1q-0.4-0.3-0.7-0.6-0.4 0.8-0.8 1.6z"/>
					</g>
					<g id="&lt;Group&gt;">
						<path id="&lt;Path&gt;" class="s1" d="m2970.8 1475.8c-3.3 125.6-21.3 249.6 15.8 328.3 2 4.3 3.4 8.6 4.4 13-7-71.1 2.4-157.8 4.7-245.1 0.9-34.7-9-68.1-25-98.5 0 0.8 0.1 1.5 0.1 2.3z"/>
					</g>
					<g id="&lt;Group&gt;">
						<path id="&lt;Path&gt;" class="s1" d="m2992.6 1830.5c1 75.5-116.9 166.3-116.9 166.3 0 0 61.8 19.8 66 59.7 40.7-40 93.7-105.5 69.8-156.2-9.6-20.5-15.5-44-18.9-69.8z"/>
					</g>
				</g>
				<g id="&lt;Group&gt;">
					<g id="&lt;Group&gt;">
						<path id="&lt;Path&gt;" class="s4" d="m2455.4 1327.4c11.6 122.9-92.5 252-232.4 288.2-139.9 36.3-262.7-34-274.3-156.9-11.5-122.9 92.6-251.9 232.5-288.2 139.9-36.2 262.7 34 274.2 156.9z"/>
					</g>
					<g id="&lt;Group&gt;" style="opacity: .7">
						<path id="&lt;Path&gt;" class="s3" d="m2241.3 1604.9c-131.9 34.2-247.7-32.1-258.6-148-10.9-115.9 87.3-237.6 219.2-271.7 97-25.2 185.2 4 229.5 67.3-44.2-74.3-142.1-110-250.2-82-139.9 36.3-244 165.3-232.5 288.2 11.6 122.9 134.4 193.2 274.3 156.9 36.9-9.6 71.3-25.6 101.8-46.3-25.5 15.6-53.6 27.8-83.5 35.6z"/>
					</g>
					<g id="&lt;Group&gt;">
						<path id="&lt;Path&gt;" class="s5" d="m2223.1 1221l30.6 325.3c85.4-37.4 144.6-121.5 137-202.1-7.5-80.6-79.4-130.8-167.6-123.2z"/>
					</g>
					<g id="&lt;Group&gt;">
						<path id="&lt;Path&gt;" class="s5" d="m2146.6 1241.6c-83.3 38.2-140.6 121-133.2 200.4 7.5 79.3 77.3 129.2 163.7 123.4z"/>
					</g>
					<g id="&lt;Group&gt;">
						<path id="&lt;Path&gt;" class="s5" d="m2146.6 1241.6c-83.3 38.2-140.6 121-133.2 200.4 7.5 79.3 77.3 129.2 163.7 123.4z"/>
					</g>
					<g id="&lt;Group&gt;">
						<path id="&lt;Path&gt;" class="s4" d="m2158.4 1350.1c-27.3 12.5-46.1 39.6-43.7 65.6 2.4 26 25.3 42.4 53.6 40.5z"/>
					</g>
					<g id="&lt;Group&gt;">
						<path id="&lt;Path&gt;" class="s4" d="m2231.9 1331c28.3-1.9 51.2 14.4 53.6 40.5 2.4 26-16.3 53.1-43.6 65.6z"/>
					</g>
					<g id="&lt;Group&gt;">
						<path id="&lt;Compound Path&gt;" fill-rule="evenodd" class="s1" d="m2150.4 1640.8c-50.9 0-98.4-13.8-136.5-40.5-46.7-32.8-75.4-82.5-80.8-140.1-12.2-130.1 97.3-266.8 244.1-304.9 78.7-20.4 156.4-9.2 213 30.5 46.7 32.8 75.4 82.6 80.8 140.2 12.2 130-97.3 266.8-244.1 304.8-25.8 6.7-51.6 10-76.5 10zm103.4-464.1c-22.3 0-45.4 3-68.7 9-132.5 34.4-231.6 156.2-220.7 271.5 4.5 48.3 28.5 90 67.5 117.4 49.2 34.5 117.4 43.9 187.1 25.8 132.6-34.3 231.6-156.1 220.8-271.5-4.6-48.3-28.6-90-67.6-117.4-32.7-22.9-73.9-34.8-118.4-34.8z"/>
					</g>
					<g id="&lt;Group&gt;">
						<g id="&lt;Group&gt;">
							<path id="&lt;Path&gt;" class="s6" d="m2117.6 1494.4c1.8 4.7 3.1 9.2 4.1 13.8 1.1 4.5 1.8 8.9 1.5 13.1-0.5 6.3-5.9 10.9-12.1 10.5-6.3-0.5-10.9-6-10.5-12.2 0.1-1 0.4-2.1 0.7-3 1.5-4 3.9-7.7 6.9-11.4 2.8-3.7 5.8-7.3 9.4-10.8z"/>
						</g>
						<g id="&lt;Group&gt;">
							<path id="&lt;Path&gt;" class="s6" d="m2081.7 1461.6c-0.7 5-1.9 9.6-3.2 14.1-1.2 4.5-2.8 8.7-5.1 12.3-3.5 5.2-10.5 6.6-15.7 3.2-5.2-3.5-6.6-10.5-3.2-15.7 0.6-0.9 1.3-1.7 2.1-2.3 3.2-2.8 7.2-4.9 11.5-6.7 4.3-1.8 8.7-3.5 13.6-4.9z"/>
						</g>
						<g id="&lt;Group&gt;">
							<path id="&lt;Path&gt;" class="s6" d="m2072.1 1409.2c-2.9 3.8-6 7-9.1 10-3.1 3.1-6.4 5.8-9.9 7.5-5.7 2.6-12.4 0.2-15.1-5.5-2.7-5.6-0.2-12.4 5.4-15 1.1-0.5 2.2-0.8 3.2-1 3.9-0.6 8.1-0.1 12.4 0.8 4.3 0.7 8.6 1.7 13.1 3.2z"/>
						</g>
						<g id="&lt;Group&gt;">
							<path id="&lt;Path&gt;" class="s6" d="m2092.2 1355.6c-4.3 1.3-8.5 2-12.5 2.5-4.1 0.6-8 0.8-11.6 0-6.1-1.3-9.9-7.4-8.6-13.5 1.4-6.1 7.4-10 13.5-8.6 1.3 0.2 2.4 0.7 3.4 1.3 3.1 1.9 5.8 4.7 8.4 7.9 2.6 3.2 5.1 6.5 7.4 10.4z"/>
						</g>
						<g id="&lt;Group&gt;">
							<path id="&lt;Path&gt;" class="s6" d="m2135 1319.6c-4.2-2-7.9-4.2-11.4-6.6-3.6-2.3-6.8-4.8-9.1-7.8-3.8-5-2.8-12.1 2.2-15.9 4.9-3.8 12.1-2.8 15.8 2.2 0.8 0.9 1.3 2 1.7 3.1 1.3 3.5 1.6 7.6 1.6 11.9 0 4.2-0.2 8.5-0.8 13.1z"/>
						</g>
					</g>
					<g id="&lt;Group&gt;">
						<g id="&lt;Group&gt;">
							<path id="&lt;Path&gt;" class="s6" d="m2300.8 1446.5c4.1 2.3 7.6 5 11 7.7 3.5 2.6 6.5 5.4 8.6 8.7 3.4 5.3 1.9 12.3-3.4 15.7-5.2 3.4-12.2 1.8-15.6-3.4-0.6-1-1.1-2.1-1.4-3.1-1.1-3.7-1.1-7.9-0.8-12.3 0.2-4.3 0.6-8.7 1.6-13.3z"/>
						</g>
						<g id="&lt;Group&gt;">
							<path id="&lt;Path&gt;" class="s6" d="m2328.3 1396.7c4.4-0.8 8.6-1.1 12.7-1.2 4.1-0.2 8 0 11.4 1.1 6 2 9.2 8.4 7.3 14.4-2 5.9-8.4 9.2-14.4 7.2-1.1-0.4-2.2-1-3.2-1.7-2.9-2.1-5.3-5.2-7.5-8.7-2.3-3.4-4.4-7-6.3-11.1z"/>
						</g>
						<g id="&lt;Group&gt;">
							<path id="&lt;Path&gt;" class="s6" d="m2327.6 1341.3c3.1-3.5 6.3-6.4 9.5-9.1 3.2-2.8 6.5-5.2 10.1-6.6 5.8-2.2 12.4 0.7 14.6 6.5 2.3 5.9-0.7 12.4-6.5 14.7-1.1 0.4-2.3 0.6-3.4 0.7-3.8 0.2-7.8-0.6-11.9-1.8-4-1.1-8.1-2.5-12.4-4.4z"/>
						</g>
						<g id="&lt;Group&gt;">
							<path id="&lt;Path&gt;" class="s6" d="m2299.1 1299.7c0.8-4.9 2.1-9.4 3.6-13.7 1.3-4.4 3-8.5 5.4-11.8 3.7-5.1 10.8-6.2 15.9-2.5 5 3.7 6.1 10.8 2.4 15.8-0.6 0.9-1.4 1.7-2.2 2.3-3.2 2.5-7.3 4.3-11.6 5.8-4.3 1.6-8.7 3.1-13.5 4.1z"/>
						</g>
						<g id="&lt;Group&gt;">
							<path id="&lt;Path&gt;" class="s6" d="m2252.6 1286.5c-1.6-4.8-2.7-9.4-3.5-14-1-4.6-1.5-9.1-1-13.3 0.7-6.2 6.3-10.6 12.5-9.9 6.3 0.7 10.7 6.3 10 12.5-0.2 1.1-0.4 2.1-0.8 3-1.6 4-4.3 7.6-7.3 11.2-3 3.6-6.1 7.1-9.9 10.5z"/>
						</g>
					</g>
					<g id="&lt;Group&gt;">
						<path id="&lt;Compound Path&gt;" fill-rule="evenodd" class="s5" d="m2253.7 1562c-2.8 0-5.6-0.7-8-2.2-4.3-2.5-7.2-7-7.7-12l-30.5-325.3c-0.4-4.2 0.9-8.3 3.6-11.5 2.6-3.2 6.5-5.2 10.7-5.6 98.7-8.6 176.3 49.2 184.6 137.3 8 85.7-53.6 177.3-146.5 218-2 0.8-4.1 1.3-6.2 1.3zm-13.4-326l26.8 286.1c69.7-38.7 114.3-110 108-176.4-6.1-65.5-61.7-109.7-134.6-109.7q-0.1 0-0.2 0z"/>
					</g>
					<g id="&lt;Group&gt;">
						<path id="&lt;Compound Path&gt;" fill-rule="evenodd" class="s5" d="m2163.6 1581.6c-89.4 0-158.1-56.4-165.8-138.2-8-85.2 50.5-174 142.3-216.1 4.6-2.1 10-1.9 14.4 0.7 4.4 2.5 7.3 7.1 7.8 12.1l30.4 323.8c0.4 4.3-1 8.5-3.7 11.7-2.7 3.2-6.7 5.2-10.9 5.5q-7.4 0.5-14.5 0.5zm-30.4-315.4c-67.3 39.2-110.2 109.5-104.1 174.3 6 64.9 58.9 108.3 130.8 109.6z"/>
					</g>
				</g>
				<g id="&lt;Group&gt;">
					<g id="&lt;Group&gt;">
						<path id="&lt;Path&gt;" class="s4" d="m1878.2 1911.5c10.8 115-86.5 235.7-217.4 269.6-130.9 33.9-245.7-31.8-256.5-146.7-10.8-115 86.5-235.7 217.4-269.6 130.9-33.9 245.7 31.8 256.5 146.7z"/>
					</g>
					<g id="&lt;Group&gt;" style="opacity: .7">
						<path id="&lt;Path&gt;" class="s3" d="m1678 2171.1c-123.5 32-231.8-30-241.9-138.4-10.2-108.4 81.6-222.3 205-254.2 90.7-23.5 173.3 3.8 214.7 63-41.4-69.6-132.9-102.9-234.1-76.7-130.9 33.9-228.2 154.6-217.4 269.6 10.8 114.9 125.6 180.6 256.5 146.7 34.6-8.9 66.7-24 95.2-43.3-23.8 14.6-50.1 26-78 33.3z"/>
					</g>
					<g id="&lt;Group&gt;">
						<path id="&lt;Path&gt;" class="s5" d="m1660.9 1812l28.6 304.3c79.9-35 135.3-113.7 128.2-189.1-7.1-75.4-74.3-122.3-156.8-115.2z"/>
					</g>
					<g id="&lt;Group&gt;">
						<path id="&lt;Path&gt;" class="s5" d="m1589.4 1831.3c-77.9 35.7-131.6 113.1-124.6 187.4 7 74.2 72.3 120.9 153.1 115.5z"/>
					</g>
					<g id="&lt;Group&gt;">
						<path id="&lt;Path&gt;" class="s5" d="m1589.4 1831.3c-77.9 35.7-131.6 113.1-124.6 187.4 7 74.2 72.3 120.9 153.1 115.5z"/>
					</g>
					<g id="&lt;Group&gt;">
						<path id="&lt;Path&gt;" class="s4" d="m1600.4 1932.7c-25.6 11.7-43.2 37.1-40.9 61.4 2.3 24.4 23.7 39.6 50.2 37.9z"/>
					</g>
					<g id="&lt;Group&gt;">
						<path id="&lt;Path&gt;" class="s4" d="m1669.2 1914.9c26.4-1.8 47.8 13.5 50.1 37.8 2.3 24.4-15.3 49.7-40.8 61.4z"/>
					</g>
					<g id="&lt;Group&gt;">
						<path id="&lt;Compound Path&gt;" fill-rule="evenodd" class="s1" d="m1593 2206.2c-48 0-92.7-13-128.6-38.2-44-30.9-71.1-77.8-76.2-132.1-11.5-122.4 91.4-251 229.5-286.8 74-19.2 147.1-8.7 200.4 28.8 44.1 30.9 71.1 77.8 76.2 132.1 11.5 122.4-91.4 251-229.4 286.8-24.3 6.3-48.5 9.4-71.9 9.4zm96.6-434.1c-20.7 0-42.2 2.7-63.8 8.3-123.3 32-215.5 145.2-205.4 252.4 4.2 44.8 26.4 83.4 62.6 108.7 45.6 32 108.9 40.8 173.8 24 123.3-32 215.4-145.2 205.3-252.4-4.2-44.8-26.4-83.4-62.6-108.7-30.3-21.4-68.6-32.3-109.9-32.3z"/>
					</g>
					<g id="&lt;Group&gt;">
						<g id="&lt;Group&gt;">
							<path id="&lt;Path&gt;" class="s6" d="m1584.8 2072.5c2.5 3.6 4.5 7.3 6.4 10.9 1.8 3.7 3.4 7.4 4.1 11.1 0.9 5.1-2.4 9.9-7.5 10.8-5.1 1-9.9-2.4-10.8-7.5-0.1-0.7-0.2-1.5-0.1-2.2 0.2-3.8 1.4-7.7 2.9-11.5 1.4-3.9 3-7.7 5-11.6z"/>
						</g>
						<g id="&lt;Group&gt;">
							<path id="&lt;Path&gt;" class="s6" d="m1542.9 2055.6c0.3 4.6 0.1 8.9-0.3 13.2-0.3 4.3-0.8 8.5-2.2 12.3-1.8 4.8-7.2 7.3-12 5.5-4.8-1.8-7.3-7.1-5.5-12 0.3-0.6 0.6-1.3 1-1.9 2.2-3.3 5.2-6.2 8.5-9 3.3-2.9 6.7-5.6 10.5-8.1z"/>
						</g>
						<g id="&lt;Group&gt;">
							<path id="&lt;Path&gt;" class="s6" d="m1520.6 2013.9c-1.9 4-4.1 7.6-6.4 11-2.2 3.5-4.6 6.8-7.5 9.3-4 3.3-9.8 2.8-13.2-1.1-3.3-3.9-2.8-9.8 1.1-13.1 0.6-0.5 1.2-1 1.9-1.3 3.4-1.7 7.4-2.6 11.5-3.3 4-0.8 8.2-1.3 12.6-1.5z"/>
						</g>
						<g id="&lt;Group&gt;">
							<path id="&lt;Path&gt;" class="s6" d="m1525.8 1962c-3.5 2.2-7 3.9-10.5 5.4-3.5 1.6-7 2.9-10.4 3.2-5.1 0.6-9.7-3.2-10.3-8.3-0.5-5.1 3.2-9.7 8.3-10.2 0.9-0.1 1.7-0.1 2.5 0 3.5 0.6 6.9 2.1 10.2 3.9 3.4 1.7 6.8 3.6 10.2 6z"/>
						</g>
						<g id="&lt;Group&gt;">
							<path id="&lt;Path&gt;" class="s6" d="m1556.6 1918.1c-4-0.6-7.7-1.5-11.3-2.5-3.6-1.1-7.1-2.3-9.9-4.2-4.2-2.9-5.3-8.7-2.4-13 2.9-4.2 8.7-5.3 12.9-2.4 0.7 0.5 1.4 1.1 1.9 1.7 2.2 2.6 3.8 5.9 5.1 9.4 1.5 3.4 2.7 7 3.7 11z"/>
						</g>
					</g>
					<g id="&lt;Group&gt;">
						<g id="&lt;Group&gt;">
							<path id="&lt;Path&gt;" class="s6" d="m1733.6 2022.9c3.5 2.4 6.7 4.9 9.6 7.5 3 2.6 5.7 5.3 7.6 8.4 2.7 4.4 1.4 10.1-3 12.8-4.4 2.7-10.1 1.3-12.8-3.1-0.5-0.6-0.8-1.4-1-2.1-1.1-3.5-1.3-7.4-1.2-11.3 0-4 0.2-8 0.8-12.2z"/>
						</g>
						<g id="&lt;Group&gt;">
							<path id="&lt;Path&gt;" class="s6" d="m1759.3 1976.4c4-0.5 7.8-0.6 11.5-0.5 3.8 0.1 7.4 0.4 10.5 1.5 4.9 1.7 7.5 7 5.7 11.9-1.7 4.9-7 7.4-11.9 5.7-0.8-0.3-1.6-0.7-2.3-1.2-2.7-1.9-5-4.7-7.2-7.8-2.3-2.9-4.4-6.1-6.3-9.6z"/>
						</g>
						<g id="&lt;Group&gt;">
							<path id="&lt;Path&gt;" class="s6" d="m1758.7 1924.5c2.9-2.9 6-5.5 9-7.8 3.1-2.3 6.2-4.4 9.5-5.6 4.9-1.8 10.2 0.7 12 5.6 1.7 4.8-0.8 10.2-5.6 11.9-0.8 0.3-1.7 0.5-2.4 0.5-3.6 0.3-7.3-0.3-11.1-1.2-3.7-0.8-7.5-1.9-11.4-3.4z"/>
						</g>
						<g id="&lt;Group&gt;">
							<path id="&lt;Path&gt;" class="s6" d="m1732 1885.6c1-4.4 2.4-8.4 3.9-12.3 1.5-3.9 3.1-7.6 5.5-10.7 3.1-4.1 8.9-4.9 13-1.8 4.1 3.1 4.9 9 1.8 13.1-0.5 0.6-1 1.1-1.6 1.6-3 2.4-6.6 4.2-10.5 5.8-3.8 1.6-7.8 3.1-12.1 4.3z"/>
						</g>
						<g id="&lt;Group&gt;">
							<path id="&lt;Path&gt;" class="s6" d="m1688.5 1873.2c-1.2-4.4-2-8.6-2.5-12.8-0.7-4.3-1-8.4-0.5-12.4 0.7-5 5.4-8.6 10.5-7.9 5.1 0.7 8.6 5.4 7.9 10.5 0 0.7-0.3 1.4-0.5 2.1-1.4 3.7-3.8 7.1-6.4 10.5-2.5 3.4-5.3 6.8-8.5 10z"/>
						</g>
					</g>
					<g id="&lt;Group&gt;">
						<path id="&lt;Compound Path&gt;" fill-rule="evenodd" class="s5" d="m1689.5 2132.5c-2.8 0-5.7-0.8-8.2-2.3-4.5-2.6-7.4-7.2-7.9-12.4l-28.6-304.3c-0.4-4.3 0.9-8.5 3.7-11.8 2.8-3.4 6.7-5.4 11-5.8 93.2-8.1 166.5 46.6 174.3 129.8 7.6 80.8-50.4 167.1-137.8 205.4-2.1 0.9-4.3 1.4-6.5 1.4zm-10.9-305l24.8 263.7c63.5-36.1 103.9-101.5 98.2-162.5-5.6-59.9-56.2-100.6-123-101.2z"/>
					</g>
					<g id="&lt;Group&gt;">
						<path id="&lt;Compound Path&gt;" fill-rule="evenodd" class="s5" d="m1605.2 2150.8c-84.4 0-149.3-53.3-156.5-130.6-7.6-80.3 47.5-164 134-203.7 4.7-2.1 10.3-1.9 14.8 0.7 4.5 2.7 7.5 7.3 8 12.5l28.5 302.9c0.4 4.4-1 8.7-3.8 12-2.9 3.4-6.9 5.4-11.3 5.7q-6.9 0.5-13.7 0.5zm-29.6-294c-61.3 36.6-100.3 101-94.7 160.4 5.6 59.4 53.7 99.3 119.2 101.1z"/>
					</g>
				</g>
				<g id="&lt;Group&gt;">
					<g id="&lt;Group&gt;">
						<g id="&lt;Group&gt;">
							<path id="&lt;Path&gt;" class="s7" d="m1309.8 1940.1c-170.9 7-174.3 93.7-120 227.4 102.7-42.9 170.6-118.2 120-227.4z"/>
						</g>
						<g id="&lt;Group&gt;">
							<path id="&lt;Compound Path&gt;" fill-rule="evenodd" class="s8" d="m1185.7 2197.4c-2.2 0-4.4-0.4-6.4-1.3-4.2-1.8-7.5-5.3-8.9-9.6-26.1-76.4-45.3-154.2-8.8-206.3 25.3-36.3 73.7-54.7 147.9-56.3 6.1-0.2 11.9 3.4 14.8 8.9 21.5 42.9 25.3 85.3 11.1 126.1-19.1 54.6-69.8 103.2-143 137-2.1 1-4.4 1.5-6.7 1.5zm114-240.8c-57.1 2.6-93.7 16.4-111.6 42.1-25.7 36.8-12.3 99.8 7 159.8 55.7-29.1 95.2-68.7 109.7-110.2 10.2-29.4 8.5-60.2-5.1-91.7z"/>
						</g>
						<g id="&lt;Group&gt;">
							<path id="&lt;Path&gt;" class="s9" d="m1315 1955.4c-11.2 5.2-21.8 11.7-32 20-10.1 8.3-19.9 17.9-28.8 28.8-17.9 21.8-32.7 47.1-45 74.8 0-15.3 2.4-30.5 6.2-45.5 3.9-14.9 9.4-29.6 16.8-43.7 7.4-14 16.5-27.6 28.6-39.2 11.9-11.5 26.7-21.4 43.9-25.8 8.6-2.2 17.5 3 19.7 11.7 2 7.7-1.9 15.5-8.9 18.7z"/>
						</g>
					</g>
					<g id="&lt;Group&gt;">
						<g id="&lt;Group&gt;">
							<path id="&lt;Path&gt;" class="s7" d="m1619.2 1473.7c151.3-79.8 197.7-6.6 218 136.3-110.3 14.5-206.9-16.5-218-136.3z"/>
						</g>
						<g id="&lt;Group&gt;">
							<path id="&lt;Compound Path&gt;" fill-rule="evenodd" class="s8" d="m1812.2 1637.7c-64.2 0-118.5-16.8-155.4-48.4-32.8-28.2-50.9-66.7-53.8-114.6-0.3-6.3 2.9-12.1 8.4-15.1 64.9-35.9 115.9-44.3 156.1-25.7 57.7 26.8 80.3 103.6 96 182.8 0.9 4.4-0.1 9.1-2.9 12.8-2.7 3.7-6.9 6-11.4 6.4q-19 1.8-37 1.8zm-176-154.8c4.1 34.1 18.1 61.6 41.7 81.8 33.4 28.7 87.5 43 150.2 40.3-13.4-61.7-33.5-122.9-74.2-141.8-28.5-13.2-67-6.7-117.7 19.7z"/>
						</g>
						<g id="&lt;Group&gt;">
							<path id="&lt;Path&gt;" class="s9" d="m1615.9 1457.9c17.1-4.9 34.9-3.7 51 0.2 16.2 4 30.9 11.2 44.3 19.6 13.5 8.4 25.6 18.4 36.5 29.3 10.9 11 20.6 23 28.2 36.2-24.5-17.7-50-32.1-76.4-42-13.1-5-26.5-8.3-39.4-10.4-13-2.1-25.5-2.4-37.7-1.2h-0.5c-9 0.8-16.9-5.7-17.7-14.6-0.7-7.9 4.3-15.1 11.7-17.1z"/>
						</g>
					</g>
					<g id="&lt;Group&gt;">
						<g id="&lt;Group&gt;">
							<path id="&lt;Path&gt;" class="s7" d="m2291.9 2011.3c-117.2-108.6-176.9-53.8-229.8 70.2 96.1 39.8 190.8 35.2 229.8-70.2z"/>
						</g>
						<g id="&lt;Group&gt;">
							<path id="&lt;Compound Path&gt;" fill-rule="evenodd" class="s8" d="m2151.5 2122.9c-32.9 0-69-7-106.5-20.9-4-1.5-7.2-4.6-8.7-8.6-1.6-4-1.4-8.4 0.5-12.3 33.4-67.5 72.4-131.5 130.9-141.6 40.7-7.1 84.8 12.8 134.7 61 4.2 4 5.7 10.1 3.8 15.6-14.2 42.5-39.8 73-76.3 90.4-22.8 10.9-49.4 16.4-78.4 16.4zm-79.9-43.7c55.9 17.7 108.2 17.8 145.3 0 26.2-12.5 45.5-33.9 57.4-63.7-39.3-36.1-72.6-51.2-101.4-46.2-41.4 7.1-74.3 57.5-101.3 109.9z"/>
						</g>
						<g id="&lt;Group&gt;">
							<path id="&lt;Path&gt;" class="s9" d="m2285.1 2024.8c-10.7-3.9-22-6.7-34.3-8-12.1-1.2-25-1.4-38-0.1-26.2 2.5-52.8 9.3-79.2 19.4 10.1-10.1 21.8-18.5 34.2-25.8 12.5-7.3 25.9-13.3 40-17.7 14.2-4.3 29.2-7.2 44.8-6.9 15.5 0.4 31.9 3.7 46.1 12.1 7.1 4.3 9.5 13.6 5.2 20.8-3.8 6.4-11.6 8.9-18.3 6.4z"/>
						</g>
					</g>
					<g id="&lt;Group&gt;">
						<g id="&lt;Group&gt;">
							<path id="&lt;Path&gt;" class="s7" d="m955.2 2285.7c9.2 0.5 17.9 1.3 26.9 2.3 8.9 1 17.9 2.3 26.9 3.9 9 1.5 18 3.5 27.3 6.2 9.4 2.8 18.8 5.8 29.2 12.3l1.2 0.7c10.6 6.5 13.9 20.4 7.4 30.9-6.5 10.6-20.3 13.9-30.9 7.4-1.2-0.7-2.4-1.6-3.4-2.6-3.8-3.4-10.6-7.1-17.4-10.3-7-3.2-14.6-6.1-22.4-8.7-7.8-2.6-15.8-4.9-23.9-7.1-8.1-2.1-16.5-4.1-24.4-5.7l-0.4-0.1c-8-1.6-13.1-9.5-11.4-17.4 1.5-7.3 8.1-12.2 15.3-11.8z"/>
						</g>
						<g id="&lt;Group&gt;" style="opacity: .3">
							<path id="&lt;Path&gt;" class="s1" d="m955.2 2285.7c9.2 0.5 17.9 1.3 26.9 2.3 8.9 1 17.9 2.3 26.9 3.9 9 1.5 18 3.5 27.3 6.2 9.4 2.8 18.8 5.8 29.2 12.3l1.2 0.7c10.6 6.5 13.9 20.4 7.4 30.9-6.5 10.6-20.3 13.9-30.9 7.4-1.2-0.7-2.4-1.6-3.4-2.6-3.8-3.4-10.6-7.1-17.4-10.3-7-3.2-14.6-6.1-22.4-8.7-7.8-2.6-15.8-4.9-23.9-7.1-8.1-2.1-16.5-4.1-24.4-5.7l-0.4-0.1c-8-1.6-13.1-9.5-11.4-17.4 1.5-7.3 8.1-12.2 15.3-11.8z"/>
						</g>
						<g id="&lt;Group&gt;">
							<path id="&lt;Compound Path&gt;" fill-rule="evenodd" class="s8" d="m1054.9 2365.6c-6.3 0-12.7-1.7-18.5-5.2-1.8-1.1-3.6-2.5-5.3-4-0.9-0.8-4.5-3.7-14.1-8.2-6.1-2.8-12.9-5.4-21.1-8.1-7.4-2.5-15.1-4.8-23.1-6.9-8.1-2.1-16.3-4.1-23.7-5.6-7.6-1.6-13.8-5.8-17.9-12-4.1-6.1-5.5-13.5-4-20.8 2.8-13.3 15.1-22.8 28.7-22 9 0.5 17.8 1.3 27.6 2.4 9.5 1 18.8 2.4 27.7 4 10.9 1.9 20 4 28.8 6.5 11 3.4 20.9 6.7 32.3 13.7l1.2 0.7c16.6 10.2 21.8 32.1 11.6 48.7-6.7 10.8-18.3 16.8-30.2 16.8zm-100.6-67c-0.7 0-1.6 0.5-1.8 1.5-0.1 0.6 0.1 1.1 0.3 1.4 0.2 0.3 0.5 0.6 1.1 0.8 8.2 1.7 16.9 3.7 25.4 6 8.6 2.2 16.9 4.7 24.8 7.3 9 3 16.8 6 23.7 9.2 9.3 4.3 16.3 8.5 20.7 12.5 0.4 0.4 1 0.8 1.5 1.1 4.4 2.8 10.4 1.4 13.1-3.1 2.8-4.5 1.4-10.4-3.1-13.2l-1.2-0.8c-8.8-5.4-16.8-8-26.2-10.9-7.7-2.2-15.9-4.1-25.9-5.8-8.5-1.5-17-2.8-26-3.8-9.4-1-17.8-1.7-26.3-2.2q0 0-0.1 0z"/>
						</g>
						<g id="&lt;Group&gt;">
							<g id="&lt;Group&gt;">
								<path id="&lt;Path&gt;" class="s7" d="m975.7 2303.2c-52.1-190.6-271.2-35.1-271.2-35.1 0 0 172.2 206.1 271.2 35.1z"/>
							</g>
							<g id="&lt;Group&gt;" style="opacity: .7">
								<path id="&lt;Path&gt;" class="s3" d="m974.5 2305.2c0.4-0.7 0.8-1.3 1.2-2-52.1-190.6-271.2-35.1-271.2-35.1 0 0 5.8 7 16 17.3 41.1-26.1 199.7-115.5 254 19.8z"/>
							</g>
							<g id="&lt;Group&gt;">
								<path id="&lt;Compound Path&gt;" fill-rule="evenodd" class="s8" d="m872.6 2384c-94.8 0-189.7-102.8-193.9-107.3-2.6-2.8-3.8-6.6-3.3-10.3 0.5-3.8 2.5-7.1 5.7-9.2 5.5-3.6 135.6-88.4 228.9-53.3 38.4 14.5 64.7 46.7 78.1 95.9 1 3.4 0.5 6.9-1.2 9.9-25.7 44.3-59.6 69.1-100.8 73.5q-6.7 0.8-13.5 0.8zm-163.7-113.5c28.3 27.4 105.4 94.5 174.5 87.1 31.1-3.4 57.5-22.3 78.4-56.2-11.5-37.8-32-62.4-60.9-73.3-65-24.6-157.6 22.6-192 42.4z"/>
							</g>
							<g id="&lt;Group&gt;">
								<g id="&lt;Group&gt;">
									<path id="&lt;Path&gt;" class="s7" d="m975.7 2303.2l-147.1-19"/>
								</g>
								<g id="&lt;Group&gt;">
									<path id="&lt;Path&gt;" class="s9" d="m974 2316c-12.3-0.5-24.6-2.3-36.8-4.4-12.2-2-24.3-4.8-36.4-7.5-24.2-5.7-48.3-11.9-72.2-19.9 25.2-1.7 50.1-1.6 74.9-0.9 12.4 0.4 24.8 0.8 37.1 2 12.4 1.1 24.6 2.5 36.8 5.1 6.9 1.6 11.4 8.4 9.9 15.4-1.4 6.3-7.1 10.5-13.3 10.2z"/>
								</g>
							</g>
						</g>
						<g id="&lt;Group&gt;">
							<path id="&lt;Path&gt;" class="s8" d="m868.1 2383.8q24.8-21.9 50.2-43.5c16.9-14.3 33.9-28.5 51.7-42.3 5.7-4.4 13.8-3.4 18.2 2.3 4.4 5.7 3.3 13.8-2.3 18.2q-1 0.8-2.1 1.3l-0.1 0.1c-19.4 9.7-38.8 20.3-58.1 31q-28.9 16.2-57.5 32.9z"/>
						</g>
						<g id="&lt;Group&gt;">
							<g id="&lt;Group&gt;">
								<path id="&lt;Path&gt;" class="s7" d="m976.3 2305.7c0 0-111.2 6.7-136.7 199.2 0 0 227.1-72.3 136.7-199.2z"/>
							</g>
							<g id="&lt;Group&gt;" style="opacity: .7">
								<path id="&lt;Path&gt;" class="s3" d="m871.7 2487c20.9-157.8 110.8-166 114-166.2-2.7-5-5.8-10-9.4-15.1 0 0-111.2 6.7-136.7 199.2 0 0 49-15.6 92.3-44.9-30.9 17.7-60.2 27-60.2 27z"/>
							</g>
							<g id="&lt;Group&gt;">
								<path id="&lt;Compound Path&gt;" fill-rule="evenodd" class="s8" d="m839.6 2517.8c-2.9 0-5.9-1-8.2-3-3.4-2.8-5.1-7.2-4.5-11.6 26.5-200.7 143.6-210.1 148.6-210.4 4.4-0.2 8.7 1.8 11.3 5.4 22.9 32.2 29.2 64.2 18.9 95.2-26.6 79.9-156.6 122-162.1 123.8q-2 0.6-4 0.6zm130.6-198.1c-22.3 5.1-90.5 31.3-114.5 165.5 35.9-14.5 108.7-49.4 125.5-100 7.1-21.1 3.4-42.6-11-65.5z"/>
							</g>
							<g id="&lt;Group&gt;">
								<path id="&lt;Path&gt;" class="s8" d="m913.5 2389.6q12.3-23.4 25.3-46.5c8.7-15.4 17.6-30.6 27.8-45.8 4-6 12-7.6 18-3.6 6 4 7.6 12.1 3.6 18.1-0.6 0.9-1.4 1.7-2.1 2.4-12.6 11.3-24.9 23.9-36.9 36.6-12.1 12.7-24 25.6-35.7 38.8z"/>
							</g>
						</g>
						<g id="&lt;Group&gt;">
							<g id="&lt;Group&gt;">
								<path id="&lt;Path&gt;" class="s7" d="m975.4 2305.2c0 0-103.7-40.8-68.4-231.7 0 0 193.6 138.9 68.4 231.7z"/>
							</g>
							<g id="&lt;Group&gt;" style="opacity: .7">
								<path id="&lt;Path&gt;" class="s3" d="m937.1 2098.3c-17.1-15.5-30.1-24.8-30.1-24.8-35.3 190.9 68.4 231.7 68.4 231.7 1.5-1.2 2.9-2.3 4.4-3.5-20.7-15.2-74.3-69.1-42.7-203.4z"/>
							</g>
							<g id="&lt;Group&gt;">
								<path id="&lt;Compound Path&gt;" fill-rule="evenodd" class="s8" d="m975.4 2318.1c-1.6 0-3.2-0.3-4.7-0.9-4.7-1.9-113.2-47-76.4-246.1 0.8-4.3 3.8-7.9 7.9-9.6 4.1-1.6 8.7-1.1 12.3 1.5 4.7 3.4 115.3 83.7 115.9 167.8 0.3 32.8-15.7 61.2-47.4 84.7-2.2 1.7-4.9 2.6-7.6 2.6zm-59.2-220.9c-18.7 135 38.1 181.1 57.7 192.7 20.8-17.3 30.9-36.6 30.7-58.8-0.3-53.4-58.8-109.1-88.4-133.9z"/>
							</g>
							<g id="&lt;Group&gt;">
								<path id="&lt;Path&gt;" class="s8" d="m941.6 2206c7.1 16.1 14.4 32.1 21.9 47.9 7.5 15.8 15.3 31.5 23.8 46.2 3.6 6.2 1.4 14.2-4.8 17.8-6.2 3.6-14.2 1.4-17.7-4.8-0.6-0.9-1-2-1.3-2.9-5-17.6-8.7-34.9-12.2-52.2q-5.3-26-9.7-52z"/>
							</g>
						</g>
					</g>
				</g>
				<g id="&lt;Group&gt;">
					<path id="&lt;Path&gt;" class="s1" d="m778.9 2826.6c0.5 0.8 0.8 1.2 1.4 1.6 0.5 0.4 1.4 0.9 2.9 1.3 2.9 0.7 7.5 0.7 12.5-0.1 10-1.5 21-5.3 31.7-9.8 21.6-9.1 42.9-21.1 63.6-33.9 41.5-25.7 81.6-54.6 120.7-84.6 39.1-30.1 77.3-61.6 114.5-94.1q14-12.2 27.8-24.6c9.2-8.3 18.1-16.6 27.7-25 4.8-4.1 9.4-8.4 14.3-12.5l14.7-11.8 7.3-5.9 7.6-5.7 15.2-11.2c82.2-58.1 173.3-101.5 267.3-134.8 46.9-16.8 94.7-31.1 143-43.2 48.3-12.1 97.1-22.2 146.3-29.2-97.4 19.6-192.8 48.2-285.1 83.8-46.1 18-91.1 38.4-134.9 61.2-43.6 22.9-85.7 48.8-125.1 78l-14.5 11.3-7.2 5.6-7 5.9-14.1 11.9c-4.5 4-9 8.2-13.5 12.4-8.9 8.1-17.9 17-27 25.5q-13.6 12.8-27.4 25.5c-36.8 33.7-74.5 66.4-113.3 97.9-39 31.3-78.8 61.7-121.4 89-21.3 13.5-43.2 26.5-67.2 37.1-12.1 5.2-24.5 10.1-39.1 12.6-7.3 1.1-15.3 1.9-24.5-0.1-4.6-1-9.6-2.9-14.2-6-4.5-3.1-8.4-7.5-11.1-12-4.4-7.8-1.8-17.6 6-22.1 7.7-4.4 17.5-1.8 22 5.8z"/>
				</g>
				<g id="&lt;Group&gt;">
					<g id="&lt;Group&gt;" style="opacity: .3">
						<path id="&lt;Path&gt;" class="s1" d="m2678.7 2057.7c2.6 10.1-6.4 21.2-20.3 24.8-13.8 3.5-27.1-1.7-29.7-11.8-2.6-10.1 6.5-21.2 20.3-24.8 13.8-3.6 27.1 1.7 29.7 11.8z"/>
					</g>
					<g id="&lt;Group&gt;" style="opacity: .3">
						<path id="&lt;Path&gt;" class="s1" d="m2575.4 1987.7c4.2 16.4-10.5 34.4-33 40.2-22.4 5.8-44-2.8-48.3-19.2-4.2-16.4 10.5-34.4 33-40.2 22.4-5.8 44 2.8 48.3 19.2z"/>
					</g>
					<g id="&lt;Group&gt;" style="opacity: .3">
						<path id="&lt;Path&gt;" class="s1" d="m2297 1807.3c5 13.2-4.6 29.2-21.5 35.6-17 6.4-34.7 0.8-39.8-12.5-5-13.3 4.7-29.3 21.6-35.6 16.9-6.4 34.7-0.8 39.7 12.5z"/>
					</g>
					<g id="&lt;Group&gt;" style="opacity: .3">
						<path id="&lt;Path&gt;" class="s1" d="m2597.8 1497.4c3.5 9.2-3.2 20.3-14.9 24.7-11.7 4.4-24 0.5-27.5-8.7-3.4-9.2 3.2-20.2 14.9-24.6 11.7-4.4 24-0.5 27.5 8.6z"/>
					</g>
					<g id="&lt;Group&gt;" style="opacity: .3">
						<path id="&lt;Path&gt;" class="s1" d="m2641.5 1731.4c4 10.4-3.6 22.9-16.9 27.9-13.3 5.1-27.2 0.7-31.2-9.8-3.9-10.4 3.6-22.9 16.9-28 13.3-5 27.3-0.6 31.2 9.9z"/>
					</g>
					<g id="&lt;Group&gt;" style="opacity: .3">
						<path id="&lt;Path&gt;" class="s1" d="m2373.1 1659.4c3.2 8.7-3 19-14 23.1-10.9 4.2-22.4 0.5-25.7-8.1-3.2-8.6 3-18.9 14-23 10.9-4.2 22.4-0.6 25.7 8z"/>
					</g>
					<g id="&lt;Group&gt;" style="opacity: .3">
						<path id="&lt;Path&gt;" class="s1" d="m2011.1 1945.2c5.9 8.2 2.2 21-8.3 28.6-10.4 7.5-23.7 7-29.6-1.2-6-8.3-2.3-21 8.2-28.6 10.4-7.5 23.7-7 29.7 1.2z"/>
					</g>
					<g id="&lt;Group&gt;" style="opacity: .3">
						<path id="&lt;Path&gt;" class="s1" d="m2063 1722c5.9 8.2 2.3 20.9-8.1 28.3-10.4 7.5-23.6 7-29.5-1.2-5.8-8.1-2.2-20.8 8.2-28.3 10.4-7.5 23.5-6.9 29.4 1.2z"/>
					</g>
					<g id="&lt;Group&gt;" style="opacity: .3">
						<path id="&lt;Path&gt;" class="s1" d="m1359.9 2307.5c7.8 10.9 3 27.7-10.8 37.6-13.8 10-31.3 9.2-39.1-1.6-7.8-10.8-3-27.6 10.8-37.6 13.8-9.9 31.3-9.2 39.1 1.6z"/>
					</g>
					<g id="&lt;Group&gt;" style="opacity: .3">
						<path id="&lt;Path&gt;" class="s1" d="m1371 2146.8c6.6 9.2 2.5 23.4-9.1 31.8-11.7 8.4-26.5 7.8-33.1-1.3-6.6-9.2-2.5-23.4 9.2-31.8 11.6-8.4 26.4-7.8 33 1.3z"/>
					</g>
					<g id="&lt;Group&gt;" style="opacity: .3">
						<path id="&lt;Path&gt;" class="s1" d="m1115.1 2472.1c4.4 6 1.7 15.4-6 20.9-7.6 5.5-17.4 5.1-21.7-0.9-4.4-6-1.7-15.4 6-20.9 7.7-5.5 17.4-5.1 21.7 0.9z"/>
					</g>
					<g id="&lt;Group&gt;" style="opacity: .3">
						<path id="&lt;Path&gt;" class="s1" d="m1376.7 1848.1c6.6 9.2 2.6 23.4-9.1 31.8-11.6 8.4-26.4 7.8-33-1.3-6.6-9.2-2.6-23.4 9.1-31.8 11.6-8.4 26.4-7.8 33 1.3z"/>
					</g>
					<g id="&lt;Group&gt;" style="opacity: .3">
						<path id="&lt;Path&gt;" class="s1" d="m1610.4 1680.1c8.6 11.9 3.3 30.5-11.9 41.5-15.3 11-34.6 10.2-43.2-1.8-8.6-11.9-3.3-30.5 11.9-41.5 15.3-11 34.6-10.2 43.2 1.8z"/>
					</g>
				</g>
				<g id="&lt;Group&gt;">
					<g id="&lt;Group&gt;">
						<g id="&lt;Group&gt;">
							<g id="&lt;Group&gt;">
								<path id="&lt;Path&gt;" class="s10" d="m2879.2 2111.8c-32.6 185.3 390.5 215.3 390.5 215.3 0 0 268-627.2-164.4-1162.6-432.3-535.3-1020.4-454.1-1084.5-327.7-64.1 126.4 62.9 184.2 62.9 184.2 0 0 972.1 85.7 795.5 1090.8z"/>
							</g>
							<g id="&lt;Group&gt;" style="opacity: .7">
								<path id="&lt;Path&gt;" class="s3" d="m3105.3 1164.5c-432.3-535.3-1020.4-454.1-1084.5-327.7-57.1 112.6 37.4 170.8 58.7 182.1-25.6-27.6-47-73.1-14-138.1 14-27.6 54.9-52.9 114.6-69-13.8 8.8-21.5 18.8-19.8 28.1 3.3 18.8 43.4 27.3 89.5 19.1 46-8.2 80.7-30.1 77.3-48.9-1.2-6.7-7.2-12.1-16.4-15.9 209.9-5.2 514.2 83.2 763 391.3 401.9 497.7 152.8 1080.8 152.8 1080.8 0 0-279-19.8-348.9-129 8.5 162.6 392.1 189.8 392.1 189.8 0 0 268-627.2-164.4-1162.6z"/>
							</g>
							<g id="&lt;Group&gt;" style="opacity: .3">
								<path id="&lt;Path&gt;" class="s1" d="m3269.7 2327.1c0 0 36.5-85.5 60.8-220.3-44.2-42-111.5-76.8-182.1-105.2-62.4-25-101.1-87.7-95.3-154.7 15-172.9 14.3-390.7-135.6-576.3-338-418.5-796.1-361.7-857.4-263.9 13.2 9.6 23.6 14.3 23.6 14.3 0 0 972.1 85.7 795.5 1090.8-32.6 185.3 390.5 215.3 390.5 215.3z"/>
							</g>
							<g id="&lt;Group&gt;">
								<path id="&lt;Compound Path&gt;" fill-rule="evenodd" class="s1" d="m3269.7 2345.6q-0.6 0-1.3 0c-11.9-0.9-292.7-22-381.7-136.1-23.6-30.1-32.2-64.1-25.7-100.9 52.5-298.7 7.1-544.1-134.8-729.2-229.9-299.9-640.1-339.6-644.2-340-2-0.1-4.1-0.7-6-1.5-2.6-1.2-63.2-29.4-84.5-90.2-13-36.8-8.6-77 12.8-119.3 25.2-49.6 110.5-87.8 222.7-99.6 245.1-25.9 608.3 72 892.7 424.1 227.1 281.2 260.4 587.4 248.4 794.8-13 224.3-78.6 380.2-81.4 386.7-2.9 6.8-9.6 11.2-17 11.2zm-353.9-158.9c68.9 88.3 285.5 115.2 341.8 120.8 15.5-41 63.3-180.2 73.7-363.3 11.4-200.5-21.1-496.5-240.4-768-275.1-340.7-624.7-435.5-860-410.7-111.9 11.8-177.8 48.5-193.6 79.6-16.7 32.9-20.4 63.2-11 90.1 13.8 39.8 52.4 62.4 62.6 67.8 19.9 2.1 117.3 14 240.3 57.8 125.1 44.6 300.6 132.2 426.2 295.9 148.6 193.7 196.4 448.8 142 758.3-4.7 26.5 1.4 49.9 18.4 71.7z"/>
							</g>
						</g>
						<g id="&lt;Group&gt;">
							<path id="&lt;Path&gt;" class="s0" d="m3269.7 2327.1c0 0-82.8 93.5-246.3 42.8-163.6-50.8-201.9-163.8-144.2-258.1 57.6-94.3 507.8 24.6 390.5 215.3z"/>
						</g>
						<g id="&lt;Group&gt;" style="opacity: .3">
							<path id="&lt;Path&gt;" class="s1" d="m3269.7 2327.1c0 0-82.8 93.5-246.3 42.8-163.6-50.8-201.9-163.8-144.2-258.1 57.6-94.3 507.8 24.6 390.5 215.3z"/>
						</g>
						<g id="&lt;Group&gt;">
							<path id="&lt;Compound Path&gt;" fill-rule="evenodd" class="s1" d="m3117.6 2403.6c-29.3 0-62.6-4.6-99.7-16.1-113.2-35.1-156.2-93.6-172.4-136.5-18-47.7-11.6-100.6 17.9-148.8 22.3-36.6 78-42.9 120.8-41.8 111.7 2.9 261.2 59.5 308 145.8 22.6 41.6 20.2 86.8-6.7 130.6q-0.9 1.4-2 2.6c-2.9 3.3-58.4 64.2-165.9 64.2zm-142.2-306.3c-41.3 0-71.1 8.8-80.5 24.1-23.7 38.9-28.9 79.2-14.8 116.5 18.8 49.8 71.6 90.4 148.8 114.3 141.6 43.9 216.1-26.1 226-36.3 19.3-32.3 20.9-62.4 4.8-92-39.2-72.4-174.6-123.9-276.5-126.5q-4-0.1-7.8-0.1zm294.3 229.8h0.1z"/>
						</g>
					</g>
					<g id="&lt;Group&gt;">
						<g id="&lt;Group&gt;">
							<path id="&lt;Path&gt;" class="s11" d="m2313.5 940.8c-3.8-8.3-5.2-17.3-5.2-26.3 0-9 1.7-18 4.9-26.6 3.1-8.7 8.2-16.7 14.8-23.2 6.5-6.6 14.9-11.2 24-13-4.3 8.5-9 14.8-12.6 21.9-3.7 6.9-7.3 13.6-10.3 20.7-3.1 7.1-5.8 14.4-8.3 22.1-2.4 7.8-4.8 15.7-7.3 24.4z"/>
						</g>
						<g id="&lt;Group&gt;">
							<path id="&lt;Path&gt;" class="s11" d="m2362.5 973.1c-2.6-12-2-24.4 0-36.5 2.1-12.2 6.3-24 12.2-35.1 5.7-11.1 13.9-21.1 23.7-29 2.5-1.9 4.9-3.9 7.6-5.6q4.1-2.3 8.3-4.4c2.6-1.5 5.7-2.5 8.6-3.4 3-0.9 6-1.7 9-2.3-8.2 9.5-16.6 17-23.3 26-7 8.6-13.5 17.5-19 27.1-5.6 9.6-10.5 19.6-14.9 30.2-4.5 10.5-8.3 21.5-12.2 33z"/>
						</g>
					</g>
					<g id="&lt;Group&gt;">
						<g id="&lt;Group&gt;">
							<path id="&lt;Path&gt;" class="s11" d="m3054.4 1761.9c10.3-8.2 22.4-13.6 34.9-17.7 12.6-3.8 25.9-5.7 39.2-5.4 13.4 0 26.9 2.8 39.2 8.1 3.1 1.4 6.1 2.7 9 4.3q4.3 2.8 8.4 5.6c2.7 1.8 5.2 4.2 7.5 6.5 2.4 2.4 4.6 4.7 6.7 7.3-12.9-3.5-24.1-7.9-36.1-9.9-11.7-2.6-23.3-4.4-35.3-4.9-11.9-0.6-23.9-0.2-36.1 0.9-12.3 1-24.5 2.9-37.4 5.2z"/>
						</g>
						<g id="&lt;Group&gt;">
							<path id="&lt;Path&gt;" class="s11" d="m3033.9 1847.4c16-8.3 33.7-13 51.6-15.6 18-2.6 36.5-2.4 54.7 0.3 4.5 0.9 9.1 1.4 13.5 2.6 4.5 1.2 8.9 2.4 13.3 3.7 4.4 1.4 8.6 3.4 12.9 5.1l6.3 2.8 6.1 3.4c3.9 2.4 7.9 4.6 11.7 7.2 3.7 2.8 7.2 5.8 10.7 8.7 1.7 1.4 3.5 2.8 5.1 4.5l4.6 5.1c2.9 3.5 5.9 6.9 8.6 10.5-16.2-8.3-30.8-17.3-47-22.9l-5.8-2.4-6.1-1.9c-4.1-1.2-8-2.9-12.1-3.9-4.1-1-8.1-2.1-12.2-3.1-4.1-1.2-8.3-1.7-12.4-2.5-16.7-3-33.7-4.4-51-4.6-17.3-0.1-34.7 0.9-52.5 3z"/>
						</g>
					</g>
				</g>
				<g id="&lt;Group&gt;">
					<g id="&lt;Group&gt;">
						<path id="&lt;Path&gt;" class="s7" d="m2505.6 1698.9c131-69.1 171.3-5.6 188.8 118.1-95.5 12.6-179.2-14.3-188.8-118.1z"/>
					</g>
					<g id="&lt;Group&gt;">
						<path id="&lt;Compound Path&gt;" fill-rule="evenodd" class="s8" d="m2672.7 1841c-55.5 0-102.6-14.5-134.5-42-28.5-24.3-44.1-57.7-46.6-99.2-0.3-5.4 2.5-10.5 7.2-13.1 56.2-31.1 100.4-38.4 135.2-22.2 50 23.1 69.5 89.7 83.2 158.2 0.8 3.9-0.1 8-2.5 11.2-2.4 3.1-6 5.2-9.9 5.5q-16.5 1.6-32.1 1.6zm-152.4-134.1c3.5 29.5 15.7 53.3 36.1 70.9 28.9 24.8 75.7 37.2 130.1 34.8-11.6-53.4-29-106.4-64.3-122.7-24.6-11.5-58-5.9-101.9 17z"/>
					</g>
					<g id="&lt;Group&gt;">
						<path id="&lt;Path&gt;" class="s9" d="m2502.8 1685.2c14.7-4.2 30.2-3.2 44.1 0.3 14 3.4 26.8 9.6 38.4 16.9 11.6 7.3 22.2 15.9 31.6 25.4 9.4 9.5 17.8 19.9 24.4 31.3-21.2-15.3-43.3-27.8-66.2-36.4-11.4-4.2-22.9-7.1-34.1-9-11.2-1.8-22-2-32.6-1h-0.5c-7.7 0.7-14.6-4.9-15.3-12.7-0.6-6.8 3.8-13 10.2-14.8z"/>
					</g>
				</g>
			</g>
		</g>
	</g>
</svg>